<svg xmlns="http://www.w3.org/2000/svg" viewBox="0 0 57.8 75.8">
  <defs>
    <style>
      .cls-1 {
        fill: #c964a7;
      }
    </style>
  </defs>
  <g id="Capa_2" data-name="Capa 2">
    <g id="Outline">
      <g>
        <path class="cls-1" d="M30,42.86a2.52,2.52,0,1,1-5,0H23.31a4,4,0,0,0,4.2,4.21,4.05,4.05,0,0,0,4.2-4.21Zm0,0a2.52,2.52,0,1,1-5,0H23.31a4,4,0,0,0,4.2,4.21,4.05,4.05,0,0,0,4.2-4.21Zm0,0a2.52,2.52,0,1,1-5,0H23.31a4,4,0,0,0,4.2,4.21,4.05,4.05,0,0,0,4.2-4.21Zm0,0a2.52,2.52,0,1,1-5,0H23.31a4,4,0,0,0,4.2,4.21,4.05,4.05,0,0,0,4.2-4.21Zm0,0a2.52,2.52,0,1,1-5,0H23.31a4,4,0,0,0,4.2,4.21,4.05,4.05,0,0,0,4.2-4.21Zm0,0a2.52,2.52,0,1,1-5,0H23.31a4,4,0,0,0,4.2,4.21,4.05,4.05,0,0,0,4.2-4.21Zm0,0a2.52,2.52,0,1,1-5,0H23.31a4,4,0,0,0,4.2,4.21,4.05,4.05,0,0,0,4.2-4.21Zm0,0a2.52,2.52,0,1,1-5,0H23.31a4,4,0,0,0,4.2,4.21,4.05,4.05,0,0,0,4.2-4.21Zm0,0a2.52,2.52,0,1,1-5,0H23.31a4,4,0,0,0,4.2,4.21,4.05,4.05,0,0,0,4.2-4.21Zm0,0a2.52,2.52,0,1,1-5,0H23.31a4,4,0,0,0,4.2,4.21,4.05,4.05,0,0,0,4.2-4.21Zm0,0a2.52,2.52,0,1,1-5,0H23.31a4,4,0,0,0,4.2,4.21,4.05,4.05,0,0,0,4.2-4.21Zm0,0a2.52,2.52,0,1,1-5,0H23.31a4,4,0,0,0,4.2,4.21,4.05,4.05,0,0,0,4.2-4.21Zm0,0a2.52,2.52,0,1,1-5,0H23.31a4,4,0,0,0,4.2,4.21,4.05,4.05,0,0,0,4.2-4.21Zm0,0a2.52,2.52,0,1,1-5,0H23.31a4,4,0,0,0,4.2,4.21,4.05,4.05,0,0,0,4.2-4.21Zm0,0a2.52,2.52,0,1,1-5,0H23.31a4,4,0,0,0,4.2,4.21,4.05,4.05,0,0,0,4.2-4.21Zm0,0a2.52,2.52,0,1,1-5,0H23.31a4,4,0,0,0,4.2,4.21,4.05,4.05,0,0,0,4.2-4.21Zm0,0a2.52,2.52,0,1,1-5,0H23.31a4,4,0,0,0,4.2,4.21,4.05,4.05,0,0,0,4.2-4.21Zm0,0a2.52,2.52,0,1,1-5,0H23.31a4,4,0,0,0,4.2,4.21,4.05,4.05,0,0,0,4.2-4.21ZM57.8,53a.84.84,0,0,0-.83-.84,12.58,12.58,0,0,0-6.67,1.91,10.31,10.31,0,0,0-4.79-6.18.82.82,0,0,0-.83,0,10.31,10.31,0,0,0-4.79,6.18,12.45,12.45,0,0,0-5.18-1.81l-.24-1.87a15.19,15.19,0,0,0,7.92-10.75A20,20,0,0,0,47,31h0a24.21,24.21,0,0,0,1.46-8.32C48.52,10.18,39.09,0,27.51,0s-21,10.18-21,22.69A24.21,24.21,0,0,0,8,31H8a20.14,20.14,0,0,0,4.65,8.64c1.78,5.78,4.57,8.94,7.51,10.63l-.38,3a2.5,2.5,0,0,1-2.24,2.17l-7.11.7A11.48,11.48,0,0,0,0,67.61V75a.84.84,0,0,0,.83.84H53.75a.85.85,0,0,0,.84-.84V68.47a7.77,7.77,0,0,0,3.1-3,.84.84,0,0,0,0-.84,7.81,7.81,0,0,0-3.13-3,12.6,12.6,0,0,0,3.24-8.47ZM39.56,55.84a.31.31,0,0,0,0,.1,10.39,10.39,0,0,0,2.72,7.93,10.84,10.84,0,0,1-3.42-1.57,11.13,11.13,0,0,1-4.77-8.42A10.86,10.86,0,0,1,39.56,55.84Zm3.94,10A6,6,0,0,1,35,66a5.53,5.53,0,0,1-.8-.94,6.19,6.19,0,0,1,2.7-2.15A12.78,12.78,0,0,0,43.5,65.82ZM12.38,21.6v15A18.47,18.47,0,0,1,20.27,9l-.66-1.54A20.14,20.14,0,0,0,8.38,19.68c1.35-10.16,9.41-18,19.13-18s17.79,7.85,19.13,18a20.16,20.16,0,0,0-4.49-7.53l-1.22,1.16a18.44,18.44,0,0,1,1.71,23.31v-15l-1,.23a21.79,21.79,0,0,1-15.38-3.25L25.32,20c.64.41,1.28.77,1.92,1.1a25.57,25.57,0,0,1-13.81.74Zm3.91,22.79C15.62,42.86,14.14,41,14.06,37V23.74A26.08,26.08,0,0,0,29.3,22.1,23.5,23.5,0,0,0,41,23.69V37a13.44,13.44,0,0,1-24.67,7.41ZM9.18,63.87V74.13H1.67V67.61a9.82,9.82,0,0,1,8.89-9.81l7.11-.7a4.15,4.15,0,0,0,3.73-3.62l.35-2.76a11.43,11.43,0,0,0,11.08,0L33,52.2c-.69.17-.65.91-.62,1.47a12.7,12.7,0,0,0,3.23,8A7.86,7.86,0,0,0,33.76,63H10A.83.83,0,0,0,9.18,63.87ZM43.74,74.13H10.85V64.71H32.47c-.23.47.08.9.33,1.28a8.5,8.5,0,0,0,1.11,1.28,7.7,7.7,0,0,0,9.83.56ZM41.18,57a8.77,8.77,0,0,1,3.91-7.44,8.67,8.67,0,0,1,2.51,12,8.79,8.79,0,0,1-2.51,2.5A8.78,8.78,0,0,1,41.18,57ZM52.92,74.13H45.41V66.89a7.76,7.76,0,0,0,7.51,2.22Zm3.06-9a6,6,0,0,1-8.38,1.51,6.09,6.09,0,0,1-.9-.77,12.78,12.78,0,0,0,6.58-2.89A6.07,6.07,0,0,1,56,65.08Zm-8-1.21a10.43,10.43,0,0,0,2.7-8,10.86,10.86,0,0,1,5.49-2A11.15,11.15,0,0,1,47.93,63.87ZM27.51,47.07a4.05,4.05,0,0,0,4.2-4.21H30a2.52,2.52,0,1,1-5,0H23.31A4,4,0,0,0,27.51,47.07ZM30,42.86a2.52,2.52,0,1,1-5,0H23.31a4,4,0,0,0,4.2,4.21,4.05,4.05,0,0,0,4.2-4.21Zm0,0a2.52,2.52,0,1,1-5,0H23.31a4,4,0,0,0,4.2,4.21,4.05,4.05,0,0,0,4.2-4.21Zm0,0a2.52,2.52,0,1,1-5,0H23.31a4,4,0,0,0,4.2,4.21,4.05,4.05,0,0,0,4.2-4.21Zm0,0a2.52,2.52,0,1,1-5,0H23.31a4,4,0,0,0,4.2,4.21,4.05,4.05,0,0,0,4.2-4.21Zm0,0a2.52,2.52,0,1,1-5,0H23.31a4,4,0,0,0,4.2,4.21,4.05,4.05,0,0,0,4.2-4.21Zm0,0a2.52,2.52,0,1,1-5,0H23.31a4,4,0,0,0,4.2,4.21,4.05,4.05,0,0,0,4.2-4.21Zm0,0a2.52,2.52,0,1,1-5,0H23.31a4,4,0,0,0,4.2,4.21,4.05,4.05,0,0,0,4.2-4.21Zm0,0a2.52,2.52,0,1,1-5,0H23.31a4,4,0,0,0,4.2,4.21,4.05,4.05,0,0,0,4.2-4.21Zm0,0a2.52,2.52,0,1,1-5,0H23.31a4,4,0,0,0,4.2,4.21,4.05,4.05,0,0,0,4.2-4.21Zm0,0a2.52,2.52,0,1,1-5,0H23.31a4,4,0,0,0,4.2,4.21,4.05,4.05,0,0,0,4.2-4.21Zm0,0a2.52,2.52,0,1,1-5,0H23.31a4,4,0,0,0,4.2,4.21,4.05,4.05,0,0,0,4.2-4.21Zm0,0a2.52,2.52,0,1,1-5,0H23.31a4,4,0,0,0,4.2,4.21,4.05,4.05,0,0,0,4.2-4.21Zm0,0a2.52,2.52,0,1,1-5,0H23.31a4,4,0,0,0,4.2,4.21,4.05,4.05,0,0,0,4.2-4.21Zm0,0a2.52,2.52,0,1,1-5,0H23.31a4,4,0,0,0,4.2,4.21,4.05,4.05,0,0,0,4.2-4.21Zm0,0a2.52,2.52,0,1,1-5,0H23.31a4,4,0,0,0,4.2,4.21,4.05,4.05,0,0,0,4.2-4.21Zm0,0a2.52,2.52,0,1,1-5,0H23.31a4,4,0,0,0,4.2,4.21,4.05,4.05,0,0,0,4.2-4.21Zm0,0a2.52,2.52,0,1,1-5,0H23.31a4,4,0,0,0,4.2,4.21,4.05,4.05,0,0,0,4.2-4.21Zm0,0a2.52,2.52,0,1,1-5,0H23.31a4,4,0,0,0,4.2,4.21,4.05,4.05,0,0,0,4.2-4.21Z"/>
        <path class="cls-1" d="M41,11.05,39.87,12.3A18.49,18.49,0,0,0,27.51,7.56a18.17,18.17,0,0,0-5.78.93l-.53-1.6A20.18,20.18,0,0,1,41,11.05Z"/>
        <path class="cls-1" d="M21.62,31.94a.84.84,0,0,0-1.68,0,.84.84,0,0,1-1.68,0,.84.84,0,0,0-1.68,0,2.52,2.52,0,1,0,5,0Z"/>
        <path class="cls-1" d="M37.59,31.1a.84.84,0,0,0-.84.84.84.84,0,0,1-1.68,0,.84.84,0,0,0-1.68,0,2.52,2.52,0,0,0,5,0A.83.83,0,0,0,37.59,31.1Z"/>
      </g>
    </g>
  </g>
</svg>
