<svg xmlns="http://www.w3.org/2000/svg" viewBox="0 0 73.18 73.22">
  <defs>
    <style>
      .cls-1 {
        fill: #c964a7;
      }
    </style>
  </defs>
  <g id="Capa_2" data-name="Capa 2">
    <g id="Capa_1-2" data-name="Capa 1">
      <g>
        <g>
          <path class="cls-1" d="M24.26,36.24V15.19A2.69,2.69,0,0,0,24,9.81H9.48a2.69,2.69,0,0,0-.25,5.38v21a16.74,16.74,0,1,0,15,0ZM7.91,12.32a1.58,1.58,0,0,1,1.59-1.6H24a1.6,1.6,0,1,1,0,3.19H9.5A1.59,1.59,0,0,1,7.91,12.32Zm8.82,54.41A15.53,15.53,0,0,1,10.48,37V15.21H23v3.85H17.86a.53.53,0,0,0,0,1.06H23v2H17.86a.53.53,0,1,0,0,1.06H23v2.09H17.86a.53.53,0,0,0,0,1.06H23V28.5H17.86a.53.53,0,1,0,0,1.06H23v2H17.86a.53.53,0,0,0-.53.53.55.55,0,0,0,.53.53H23V37a15.53,15.53,0,0,1-6.28,29.75Z"/>
          <path class="cls-1" d="M12.65,27a.53.53,0,0,1-.53-.53V18.87a.54.54,0,0,1,1.07,0V26.5A.54.54,0,0,1,12.65,27Z"/>
          <path class="cls-1" d="M16.73,44a3,3,0,1,1,3-3A3,3,0,0,1,16.73,44Zm0-5a2,2,0,1,0,2,2A2,2,0,0,0,16.73,39Z"/>
          <path class="cls-1" d="M23.15,55.81a3,3,0,1,1,3-3A3,3,0,0,1,23.15,55.81Zm0-5a2,2,0,1,0,2,2A2,2,0,0,0,23.15,50.83Z"/>
          <path class="cls-1" d="M14.21,60.27a3,3,0,1,1,3-3A3,3,0,0,1,14.21,60.27Zm0-5a2,2,0,1,0,2,2A2,2,0,0,0,14.21,55.28Z"/>
        </g>
        <path class="cls-1" d="M54.89,0H41.09a2.56,2.56,0,0,0,0,5.12h1V40.84a5.88,5.88,0,0,0,11.76,0V5.12h1a2.56,2.56,0,0,0,0-5.12ZM52.57,40.87a4.59,4.59,0,1,1-9.17,0v-36h9.17V16.67H49.89a.53.53,0,1,0,0,1.06h2.68v2.55H49.89a.54.54,0,0,0,0,1.07h2.68V23.9H49.89a.53.53,0,0,0,0,1.06h2.68v2.55H49.89a.54.54,0,0,0,0,1.07h2.68v2.55H49.89a.53.53,0,0,0,0,1.06h2.68ZM55,3.55H40.94a1.13,1.13,0,0,1,0-2.25H55a1.13,1.13,0,1,1,0,2.25Z"/>
        <path class="cls-1" d="M73.18,9.8a.53.53,0,0,0-.53-.53h-4V5.89a.25.25,0,0,0,0-.17.28.28,0,0,0,0-.17A.53.53,0,0,0,68.1,5H63.76a.55.55,0,0,0-.53.54.24.24,0,0,0,.05.17.22.22,0,0,0-.05.17V9.27H35.36a.55.55,0,0,0-.53.53.12.12,0,0,0,0,.08.15.15,0,0,0,0,.09v4.31a.54.54,0,0,0,.53.54H63.23v53H2a.53.53,0,0,0-.53.53v4.34a.53.53,0,0,0,.53.53H72.65a.53.53,0,0,0,.53-.53V68.35a.53.53,0,0,0-.53-.53h-4v-53h4a.53.53,0,0,0,.53-.54V10a.15.15,0,0,0,0-.09A.12.12,0,0,0,73.18,9.8ZM64.3,6.08h3.27V9.27H64.3Zm3.27,4.25v3.42H64.3V10.33ZM35.89,13.75V10.33H63.23v3.42ZM72.12,68.88v3.28H2.55V68.88Zm-4.55-1.06H64.3v-53h3.27Zm4.55-54.07H68.63V10.33h3.49Z"/>
      </g>
    </g>
  </g>
</svg>
