<svg xmlns="http://www.w3.org/2000/svg" viewBox="0 0 99.68 71.48">
  <defs>
    <style>
      .cls-1 {
        fill: #c964a7;
      }
    </style>
  </defs>
  <g id="Capa_2" data-name="Capa 2">
    <g id="Modo_de_aislamiento" data-name="Modo de aislamiento">
      <g>
        <g>
          <path class="cls-1" d="M48.25,63.25v7a1.19,1.19,0,1,1-2.38,0v-7A9.93,9.93,0,0,0,41.5,55a1.19,1.19,0,1,1,1.33-2A12.29,12.29,0,0,1,48.25,63.25Z"/>
          <path class="cls-1" d="M50.78,29.19v15a1.19,1.19,0,0,1-1.19,1.19H47.06a10.38,10.38,0,0,1-8-3.77,1.19,1.19,0,0,1,1.83-1.52A8,8,0,0,0,47.06,43H48.4V29.19a5.81,5.81,0,0,0-4.62-5.69v4.25a1.19,1.19,0,1,1-2.38,0V16.08A13.72,13.72,0,0,0,27.7,2.38H20.55a13.72,13.72,0,0,0-13.7,13.7V27.75A2.53,2.53,0,0,0,8.19,30v-7a1.19,1.19,0,1,1,2.38,0v8.36a13.56,13.56,0,0,0,27.11,0V24.16a6.73,6.73,0,0,1-6.26-5.29,41.3,41.3,0,0,1-8.08,4,39.82,39.82,0,0,1-8.44,2.07,1.19,1.19,0,0,1-.17-2.37,38.45,38.45,0,0,0,16.9-6.7,1.19,1.19,0,0,1,1.88,1s0,3,2.25,4.33a5.36,5.36,0,0,0,3.25.58,1.2,1.2,0,0,1,1,.88c.06.22,0-.3,0,8.75a16,16,0,0,1-20.43,15.2,7.25,7.25,0,0,1-1.52,3.92l6,4.59,3.17-2.42a1.19,1.19,0,0,1,1.44,1.9c-4.09,3.12-3.9,3-4,3.06a1.19,1.19,0,0,1-1,.09c-.26-.09.27.28-7.41-5.58a7.1,7.1,0,0,1-2.48,1v5.37a4.47,4.47,0,1,1-2.38,0V53.38a9.9,9.9,0,0,0-9.09,9.87v7a1.19,1.19,0,0,1-2.38,0v-7A12.29,12.29,0,0,1,12.3,51a5,5,0,0,0,5-5v-.31a16,16,0,0,1-9-13.15,4.93,4.93,0,0,1-3.77-4.78V16.08A16.1,16.1,0,0,1,20.55,0H27.7A16.09,16.09,0,0,1,43.78,16.08v5a8.19,8.19,0,0,1,7,8.1ZM12.66,60.76a2.09,2.09,0,1,0,2.08,2.08A2.09,2.09,0,0,0,12.66,60.76Z"/>
          <path class="cls-1" d="M42,64.77v5.52a1.18,1.18,0,0,1-1.18,1.18H38.29a1.17,1.17,0,1,1,0-2.34H39.6V64.77a4,4,0,0,0-8,0v4.36H32.9a1.17,1.17,0,1,1,0,2.34H30.38a1.18,1.18,0,0,1-1.19-1.18V64.77a6.42,6.42,0,0,1,5.21-6.29v-5.3a7.5,7.5,0,0,1-4.74-3.36,1.23,1.23,0,0,1,.41-1.66,1.18,1.18,0,0,1,1.62.41,5,5,0,0,0,4,2.37,1.2,1.2,0,0,1,1.06.81c.07.28.07-.07.07,6.73A6.42,6.42,0,0,1,42,64.77Z"/>
        </g>
        <path id="Shape" class="cls-1" d="M97.27,49.24h-13a.71.71,0,0,0-.6.34.73.73,0,0,0,0,.69,8.44,8.44,0,1,1-15,0,.73.73,0,0,0,0-.69.71.71,0,0,0-.6-.34H54.53a.7.7,0,0,0-.7.71.7.7,0,0,0,.7.7H67a9.84,9.84,0,1,0,18.38,0h11.9A.7.7,0,0,0,98,50a.71.71,0,0,0-.7-.71Z"/>
        <path id="Shape-2" data-name="Shape" class="cls-1" d="M80.23,30.94c-2.08,2.41-4.84,6.84-6.12,14.19a9.08,9.08,0,0,1-2.49,4.66,6.32,6.32,0,1,0,9.82.87,10.26,10.26,0,0,1-1.82-7,38.59,38.59,0,0,1,2.95-11.17,1.41,1.41,0,0,0-2.34-1.51Zm-2,12.49a11.81,11.81,0,0,0,2,8,4.92,4.92,0,1,1-7.64-.68,10.39,10.39,0,0,0,2.86-5.39c1.23-7,3.84-11.23,5.81-13.51a40,40,0,0,0-3.07,11.57Z"/>
        <path class="cls-1" d="M99.68,47.23a23.5,23.5,0,1,1-23.5-23.5A23.5,23.5,0,0,1,99.68,47.23ZM76.18,26.15A21.09,21.09,0,1,0,97.27,47.23,21.08,21.08,0,0,0,76.18,26.15Z"/>
      </g>
    </g>
  </g>
</svg>
