<svg xmlns="http://www.w3.org/2000/svg" viewBox="0 0 74.46 53.88">
  <defs>
    <style>
      .cls-1 {
        fill: #c14e9a;
      }
    </style>
  </defs>
  <g id="Capa_2" data-name="Capa 2">
    <g id="Outline">
      <g>
        <path class="cls-1" d="M37.23,5.93a20.25,20.25,0,0,0-6.33,1l.53,1.6a18.56,18.56,0,0,1,18.21,3.83l1.13-1.25A20.2,20.2,0,0,0,37.23,5.93Zm0,0a20.25,20.25,0,0,0-6.33,1l.53,1.6a18.56,18.56,0,0,1,18.21,3.83l1.13-1.25A20.2,20.2,0,0,0,37.23,5.93Zm0,0a20.25,20.25,0,0,0-6.33,1l.53,1.6a18.56,18.56,0,0,1,18.21,3.83l1.13-1.25A20.2,20.2,0,0,0,37.23,5.93Zm0,0a20.25,20.25,0,0,0-6.33,1l.53,1.6a18.56,18.56,0,0,1,18.21,3.83l1.13-1.25A20.2,20.2,0,0,0,37.23,5.93Zm0,0a20.25,20.25,0,0,0-6.33,1l.53,1.6a18.56,18.56,0,0,1,18.21,3.83l1.13-1.25A20.2,20.2,0,0,0,37.23,5.93Zm0,0a20.25,20.25,0,0,0-6.33,1l.53,1.6a18.56,18.56,0,0,1,18.21,3.83l1.13-1.25A20.2,20.2,0,0,0,37.23,5.93Zm0,0a20.25,20.25,0,0,0-6.33,1l.53,1.6a18.56,18.56,0,0,1,18.21,3.83l1.13-1.25A20.2,20.2,0,0,0,37.23,5.93Zm0,0a20.25,20.25,0,0,0-6.33,1l.53,1.6a18.56,18.56,0,0,1,18.21,3.83l1.13-1.25A20.2,20.2,0,0,0,37.23,5.93Zm0,0a20.25,20.25,0,0,0-6.33,1l.53,1.6a18.56,18.56,0,0,1,18.21,3.83l1.13-1.25A20.2,20.2,0,0,0,37.23,5.93Zm0,0a20.25,20.25,0,0,0-6.33,1l.53,1.6a18.56,18.56,0,0,1,18.21,3.83l1.13-1.25A20.2,20.2,0,0,0,37.23,5.93Zm0-5.91C25.6,0,16.13,10.24,16.13,22.8a24.39,24.39,0,0,0,1.47,8.35h0a20.18,20.18,0,0,0,4.67,8.67c3.35,10.83,10.23,12.52,14.95,12.52A15.2,15.2,0,0,0,52.17,39.83a20.23,20.23,0,0,0,4.68-8.68h0a24.39,24.39,0,0,0,1.47-8.35C58.33,10.24,48.86,0,37.23,0Zm13.5,27.62a6.75,6.75,0,1,0,0,8.9v.61A13.5,13.5,0,0,1,26,44.59c-.68-1.54-2.17-3.43-2.24-7.44v-.61a6.75,6.75,0,1,0,0-8.9V23.85A26.11,26.11,0,0,0,39,22.21a23.54,23.54,0,0,0,11.7,1.59Zm-7.44,3.6H40.68a5.08,5.08,0,0,1,4.14-4.14v2.61A2.57,2.57,0,0,0,43.29,31.24Zm1.53,3.22v2.61a5.06,5.06,0,0,1-4.14-4.14h2.61A2.52,2.52,0,0,0,44.82,34.46Zm.85-3.22a.85.85,0,1,1-.85.85A.85.85,0,0,1,45.67,31.24Zm.84,3.22a2.51,2.51,0,0,0,1.54-1.53h2.61a5.06,5.06,0,0,1-4.15,4.14Zm1.54-3.22a2.56,2.56,0,0,0-1.54-1.53V27.1a5.08,5.08,0,0,1,4.15,4.14ZM31.17,32.93h2.61a5.06,5.06,0,0,1-4.15,4.14V34.46A2.51,2.51,0,0,0,31.17,32.93Zm-1.54-3.22V27.1a5.08,5.08,0,0,1,4.15,4.14H31.17A2.56,2.56,0,0,0,29.63,29.71Zm-.84,3.22a.85.85,0,1,1,.84-.84A.85.85,0,0,1,28.79,32.93ZM28,29.71a2.56,2.56,0,0,0-1.54,1.53H23.8A5.08,5.08,0,0,1,28,27.1Zm-1.54,3.22A2.51,2.51,0,0,0,28,34.46v2.61a5.06,5.06,0,0,1-4.15-4.14ZM55.8,26.18a18.45,18.45,0,0,1-3.38,10.63V21.74l-1,.24a22,22,0,0,1-15.45-3.26L35,20.14c.65.41,1.29.77,1.93,1.11A25.74,25.74,0,0,1,23.1,22L22,21.71v15.1A18.51,18.51,0,0,1,30,9.09L29.3,7.54A20.23,20.23,0,0,0,18,19.78C19.38,9.57,27.47,1.71,37.23,1.71S55.1,9.59,56.44,19.81a20.11,20.11,0,0,0-4.51-7.56l-1.22,1.16A18.5,18.5,0,0,1,55.8,26.18ZM30.9,6.94l.53,1.6a18.56,18.56,0,0,1,18.21,3.83l1.13-1.25A20.28,20.28,0,0,0,30.9,6.94Zm6.33-1a20.25,20.25,0,0,0-6.33,1l.53,1.6a18.56,18.56,0,0,1,18.21,3.83l1.13-1.25A20.2,20.2,0,0,0,37.23,5.93Zm0,0a20.25,20.25,0,0,0-6.33,1l.53,1.6a18.56,18.56,0,0,1,18.21,3.83l1.13-1.25A20.2,20.2,0,0,0,37.23,5.93Zm0,0a20.25,20.25,0,0,0-6.33,1l.53,1.6a18.56,18.56,0,0,1,18.21,3.83l1.13-1.25A20.2,20.2,0,0,0,37.23,5.93Zm0,0a20.25,20.25,0,0,0-6.33,1l.53,1.6a18.56,18.56,0,0,1,18.21,3.83l1.13-1.25A20.2,20.2,0,0,0,37.23,5.93Zm0,0a20.25,20.25,0,0,0-6.33,1l.53,1.6a18.56,18.56,0,0,1,18.21,3.83l1.13-1.25A20.2,20.2,0,0,0,37.23,5.93Zm0,0a20.25,20.25,0,0,0-6.33,1l.53,1.6a18.56,18.56,0,0,1,18.21,3.83l1.13-1.25A20.2,20.2,0,0,0,37.23,5.93Zm0,0a20.25,20.25,0,0,0-6.33,1l.53,1.6a18.56,18.56,0,0,1,18.21,3.83l1.13-1.25A20.2,20.2,0,0,0,37.23,5.93Zm0,0a20.25,20.25,0,0,0-6.33,1l.53,1.6a18.56,18.56,0,0,1,18.21,3.83l1.13-1.25A20.2,20.2,0,0,0,37.23,5.93Zm0,0a20.25,20.25,0,0,0-6.33,1l.53,1.6a18.56,18.56,0,0,1,18.21,3.83l1.13-1.25A20.2,20.2,0,0,0,37.23,5.93Zm0,0a20.25,20.25,0,0,0-6.33,1l.53,1.6a18.56,18.56,0,0,1,18.21,3.83l1.13-1.25A20.2,20.2,0,0,0,37.23,5.93Z"/>
        <rect class="cls-1" x="55.51" y="0.3" width="2.82" height="2.82"/>
        <rect class="cls-1" x="55.03" y="50.48" width="2.82" height="2.82" transform="translate(-20.16 55.08) rotate(-44.98)"/>
        <rect class="cls-1" x="14.72" y="44.57" width="2.82" height="2.82" transform="translate(-27.79 24.89) rotate(-45.02)"/>
        <path class="cls-1" d="M10.13,11.47l.14.14a11,11,0,0,1,3,5.29c.28,2.51.28,2.3.28,2.51v8.44a3.55,3.55,0,0,1-.09.79,3.37,3.37,0,0,1-4.07,2.49l3.12,6.24a3.55,3.55,0,0,1-.26,3.56L10.92,42h0a3.49,3.49,0,0,1-4.68-1.56L.45,28.94A4.14,4.14,0,0,1,0,27.05V.84A.85.85,0,0,1,.84,0H9.28a.85.85,0,0,1,.85.84ZM9,40.69a1.74,1.74,0,0,0,1.19-.15A1.8,1.8,0,0,0,11,38.13L6.84,29.91a.78.78,0,0,1-.09-.37v-7.6a.85.85,0,0,1,1.69,0v5.91a1.69,1.69,0,1,0,3.37,0V19.41A9.26,9.26,0,0,0,9.08,12.8l-.39-.39a.84.84,0,0,1-.25-.6V1.69H1.69V27.05A2.47,2.47,0,0,0,2,28.18L7.73,39.74A1.81,1.81,0,0,0,9,40.69Z"/>
        <path class="cls-1" d="M64.33.84A.85.85,0,0,1,65.18,0h8.44a.85.85,0,0,1,.84.84V27.05A4.14,4.14,0,0,1,74,28.94L68.24,40.49a3.49,3.49,0,0,1-4.68,1.56h0l-1.28-1.11A3.55,3.55,0,0,1,62,37.37l3.12-6.24a3.37,3.37,0,0,1-4.07-2.49,3.55,3.55,0,0,1-.09-.79V19.41c0-.21,0,0,.28-2.51a11,11,0,0,1,2.95-5.29l.14-.14ZM65.5,40.69a1.81,1.81,0,0,0,1.23-.95L72.5,28.18a2.47,2.47,0,0,0,.27-1.13V1.69H66V11.81a.84.84,0,0,1-.25.6l-.39.39a9.26,9.26,0,0,0-2.73,6.61v8.44a1.69,1.69,0,1,0,3.37,0V21.94a.85.85,0,0,1,1.69,0v7.6a.78.78,0,0,1-.09.37l-4.11,8.22a1.8,1.8,0,0,0,.81,2.41,1.72,1.72,0,0,0,1.18.15Z"/>
        <path class="cls-1" d="M41.62,43.59a.58.58,0,0,0-.78.3,3.88,3.88,0,0,1-3.61,2,3.85,3.85,0,0,1-3.61-2,.59.59,0,1,0-1.08.48,5,5,0,0,0,4.69,2.72,5,5,0,0,0,4.69-2.72A.59.59,0,0,0,41.62,43.59Z"/>
      </g>
    </g>
  </g>
</svg>
