<?xml version="1.0" encoding="UTF-8"?> <svg xmlns="http://www.w3.org/2000/svg" id="Layer_1" data-name="Layer 1" viewBox="0 0 136.88 206.45"><defs><style>.cls-1{opacity:0.2;}.cls-2{fill:#eed9fd;}</style></defs><title>Luna- Pamper</title><g class="cls-1"><path class="cls-2" d="M69.51,162.56a10.55,10.55,0,0,0,7.31-2.85l.82-.64a10.52,10.52,0,0,1-1.78-1.93l-.82.63C73.52,159,72.21,160,69.51,160s-4-1-5.53-2.25c-.28-.22-.57-.45-.87-.67A11.3,11.3,0,0,1,61.33,159c.29.21.58.44.87.67A10.55,10.55,0,0,0,69.51,162.56Z"></path><path class="cls-2" d="M38.32,143.35a13.33,13.33,0,0,0-3.48-2.16,20.36,20.36,0,0,0-.48,2.61,12.56,12.56,0,0,1,2.18,1.49,10.55,10.55,0,0,0,7.3,2.85,10.78,10.78,0,0,1,1-2.61,8.28,8.28,0,0,1-1,.06A7.8,7.8,0,0,1,38.32,143.35Z"></path><path class="cls-2" d="M69.51,145.59A7.83,7.83,0,0,1,64,143.35a10.69,10.69,0,0,0-6.26-2.79,10.83,10.83,0,0,1,6.64,6.26,10.71,10.71,0,0,0,10.19.06,10.89,10.89,0,0,1,6.65-6.32A10.74,10.74,0,0,0,75,143.35,7.83,7.83,0,0,1,69.51,145.59Z"></path><path class="cls-2" d="M95.18,167.23c-2.7,0-4-1-5.53-2.25A10.8,10.8,0,0,0,75,165c-1.52,1.2-2.83,2.24-5.53,2.24s-4-1-5.53-2.24a10.79,10.79,0,0,0-14.61,0,7.93,7.93,0,0,1-11,0,18.92,18.92,0,0,0-2.12-1.52c.33,1.37.7,2.73,1.13,4.06a9.93,9.93,0,0,0,6.52,2.24,10.5,10.5,0,0,0,7.3-2.85c1.52-1.2,2.82-2.24,5.53-2.24a7.83,7.83,0,0,1,5.52,2.24,10.8,10.8,0,0,0,14.62,0,7.93,7.93,0,0,1,11.05,0,10.55,10.55,0,0,0,7.31,2.85,9.75,9.75,0,0,0,5.7-1.66c.44-1.35.81-2.72,1.13-4.11-.46.32-.88.66-1.3,1A7.8,7.8,0,0,1,95.18,167.23Z"></path><path class="cls-2" d="M82.34,191a10.5,10.5,0,0,0-7.3,2.85c-1.52,1.2-2.83,2.24-5.53,2.24s-4-1-5.53-2.24a10.5,10.5,0,0,0-7.3-2.85,10.36,10.36,0,0,0-3.32.5l2.32,2.1a8,8,0,0,1,6.52,2.18,10.8,10.8,0,0,0,14.62,0,7.83,7.83,0,0,1,5.52-2.24,8.24,8.24,0,0,1,1,.07l2.24-2.12A10.4,10.4,0,0,0,82.34,191Z"></path><path class="cls-2" d="M90.09,187l-.44-.34a10.79,10.79,0,0,0-14.61,0c-1.52,1.2-2.83,2.24-5.53,2.24s-4-1-5.53-2.24a10.79,10.79,0,0,0-14.61,0l-.57.45c.6.64,1.21,1.27,1.84,1.88l.51-.4c1.52-1.2,2.82-2.24,5.53-2.24a7.83,7.83,0,0,1,5.52,2.24,10.8,10.8,0,0,0,14.62,0,7.93,7.93,0,0,1,11.05,0l.42.33C88.91,188.25,89.51,187.62,90.09,187Z"></path><path class="cls-2" d="M82.34,176.56a10.5,10.5,0,0,0-7.3,2.85c-1.52,1.2-2.83,2.24-5.53,2.24s-4-1-5.53-2.24a10.79,10.79,0,0,0-14.61,0,8,8,0,0,1-5,2.21c.56.8,1.15,1.58,1.75,2.34a11.16,11.16,0,0,0,5-2.62c1.52-1.2,2.82-2.24,5.53-2.24a7.83,7.83,0,0,1,5.52,2.24,10.8,10.8,0,0,0,14.62,0,7.93,7.93,0,0,1,11.05,0,11.56,11.56,0,0,0,4.74,2.57c.57-.76,1.13-1.52,1.66-2.31a8.06,8.06,0,0,1-4.62-2.19A10.51,10.51,0,0,0,82.34,176.56Z"></path><path class="cls-2" d="M95.18,174.44c-2.7,0-4-1-5.53-2.24a10.79,10.79,0,0,0-14.61,0c-1.52,1.2-2.83,2.24-5.53,2.24s-4-1-5.53-2.24a10.79,10.79,0,0,0-14.61,0,7.83,7.83,0,0,1-5.52,2.24,7,7,0,0,1-4.35-1.35c.55,1.23,1.15,2.43,1.8,3.61a10.75,10.75,0,0,0,2.55.28,10.5,10.5,0,0,0,7.3-2.85c1.52-1.2,2.82-2.24,5.53-2.24a7.83,7.83,0,0,1,5.52,2.24,10.8,10.8,0,0,0,14.62,0,7.93,7.93,0,0,1,11.05,0A10.55,10.55,0,0,0,95.18,177a11.32,11.32,0,0,0,2-.18c.56-1.06,1.08-2.14,1.58-3.24A7.08,7.08,0,0,1,95.18,174.44Z"></path><path class="cls-2" d="M69.51,155.35a9.84,9.84,0,0,0,4.84-1.15,10.72,10.72,0,0,1-.51-2.73,7.73,7.73,0,0,1-8.74-.05,11.25,11.25,0,0,1-.5,2.74A9.81,9.81,0,0,0,69.51,155.35Z"></path><path class="cls-2" d="M69.51,119.3a10.6,10.6,0,0,0,7.31-2.85c.38-.31.76-.61,1.14-.88a16.15,16.15,0,0,1-1-2.43A22.28,22.28,0,0,0,75,114.51a8,8,0,0,1-5.14,2.22c-1,.78-2.08,1.52-3.14,2.23A11.17,11.17,0,0,0,69.51,119.3Z"></path><path class="cls-2" d="M89.65,128.93a10.79,10.79,0,0,0-14.61,0c-1.52,1.2-2.83,2.24-5.53,2.24s-4-1-5.53-2.24a10.79,10.79,0,0,0-14.61,0,7.83,7.83,0,0,1-5.52,2.24,8.1,8.1,0,0,1-2.24-.3,19.52,19.52,0,0,0-2.12,1.95,10.07,10.07,0,0,0,4.36.9,10.55,10.55,0,0,0,7.3-2.85,7.93,7.93,0,0,1,11.05,0,10.8,10.8,0,0,0,14.62,0,7.93,7.93,0,0,1,11.05,0,10.6,10.6,0,0,0,7.31,2.85,10.11,10.11,0,0,0,4.19-.83,19.87,19.87,0,0,0-2-2,7.52,7.52,0,0,1-2.21.3C92.48,131.17,91.17,130.13,89.65,128.93Z"></path><path class="cls-2" d="M100.71,136.14a7.84,7.84,0,0,1-5.53,2.24c-2.7,0-4-1-5.53-2.24a10.79,10.79,0,0,0-14.61,0c-1.52,1.2-2.83,2.24-5.53,2.24s-4-1-5.53-2.24a10.79,10.79,0,0,0-14.61,0,7.93,7.93,0,0,1-11,0l-.91-.7a18.65,18.65,0,0,0-1.29,2.31l.42.33a10.79,10.79,0,0,0,14.61,0c1.52-1.2,2.82-2.24,5.53-2.24a7.83,7.83,0,0,1,5.52,2.24,10.8,10.8,0,0,0,14.62,0,7.93,7.93,0,0,1,11.05,0,10.8,10.8,0,0,0,14.62,0h0a19.13,19.13,0,0,0-1.19-2.4C101.11,135.82,100.91,136,100.71,136.14Z"></path><path class="cls-2" d="M62.2,123.66a10.8,10.8,0,0,0,14.62,0,7.79,7.79,0,0,1,5.52-2.24h.25a26.58,26.58,0,0,1-2.26-2.38A11.18,11.18,0,0,0,75,121.72c-1.52,1.2-2.83,2.24-5.53,2.24s-4-1-5.53-2.24l-.73-.57c-.85.49-1.69,1-2.54,1.41A16.78,16.78,0,0,1,62.2,123.66Z"></path><path class="cls-2" d="M36.54,159.71a10.51,10.51,0,0,0,7.31,2.85,9.84,9.84,0,0,0,6-1.88,10.91,10.91,0,0,1-2.46-1.53,7,7,0,0,1-3.57.87,7.8,7.8,0,0,1-5.53-2.25A13.7,13.7,0,0,0,35,155.66c.08,1.05.21,2.09.36,3.13C35.73,159.07,36.13,159.38,36.54,159.71Z"></path><path class="cls-2" d="M100.71,157.77A7.8,7.8,0,0,1,95.18,160a7.06,7.06,0,0,1-3.63-.9,11,11,0,0,1-2.44,1.53,9.79,9.79,0,0,0,6.07,1.91,10.51,10.51,0,0,0,7.31-2.85l.38-.3c.16-1.12.3-2.24.38-3.37A16.59,16.59,0,0,0,100.71,157.77Z"></path><path class="cls-2" d="M36.54,152.5a10.51,10.51,0,0,0,7.31,2.85c.22,0,.42,0,.63,0a11.39,11.39,0,0,1-.8-2.52,7.88,7.88,0,0,1-5.36-2.24,12.45,12.45,0,0,0-3.94-2.33l.22,2.91A13.87,13.87,0,0,1,36.54,152.5Z"></path><path class="cls-2" d="M100.71,150.56a7.82,7.82,0,0,1-5.46,2.24,11.14,11.14,0,0,1-.8,2.51c.24,0,.47,0,.73,0a10.51,10.51,0,0,0,7.31-2.85c.37-.29.73-.58,1.1-.84l.23-3.11A14.89,14.89,0,0,0,100.71,150.56Z"></path><path class="cls-2" d="M100.71,143.35a7.8,7.8,0,0,1-5.53,2.24,10.11,10.11,0,0,1-1.14-.07,10.81,10.81,0,0,1,1,2.61h.09a10.51,10.51,0,0,0,7.31-2.85A16.13,16.13,0,0,1,104,144.2a22.64,22.64,0,0,0-.4-2.76A15.39,15.39,0,0,0,100.71,143.35Z"></path></g><path class="cls-2" d="M69.22,204.62A21.08,21.08,0,0,1,55,199.14l-5.62-5.09a56.57,56.57,0,0,1-18.5-37.78l-.75-9.82a22.65,22.65,0,0,1,17-21.83c17.55-4.62,38.28-21.07,42.1-42.46L94,83C92,93.83,86.39,103.37,79,111c1.71,6.13,8.5,11.47,14.94,14.23a22.5,22.5,0,0,1,13.46,20.84v.18l-.81,10.65a56.74,56.74,0,0,1-17.6,37l-5.2,4.92A21.06,21.06,0,0,1,69.22,204.62ZM35,146.36l.73,9.54a51.86,51.86,0,0,0,16.94,34.59l5.61,5.09a16.34,16.34,0,0,0,22.2-.24l5.19-4.92a51.92,51.92,0,0,0,16.12-33.86l.8-10.56A17.71,17.71,0,0,0,92,129.67c-6.33-2.71-13.79-8-16.85-15a67.66,67.66,0,0,1-26.8,14.63A17.84,17.84,0,0,0,35,146.36Z"></path><path class="cls-2" d="M30.46,150.41A49.7,49.7,0,0,1,22.1,108.9,47,47,0,0,1,55.74,74.06a47.65,47.65,0,0,1,41.53,8.18,49.12,49.12,0,0,1,10.06,66.88l-3.93-2.76a44.3,44.3,0,0,0-9.07-60.31A42.84,42.84,0,0,0,57,78.71,42.17,42.17,0,0,0,26.78,110a44.93,44.93,0,0,0,7.52,37.51Z"></path><path class="cls-2" d="M94.26,80.84H89.45c0-7.09-9-18-21-18-11.64,0-21,9.86-21,18H42.6C42.6,70.28,53.88,58,68.43,58,82.74,58,94.26,70.5,94.26,80.84Z"></path><path class="cls-2" d="M84,166.83a13.62,13.62,0,1,1,13.61-13.62A13.64,13.64,0,0,1,84,166.83Zm0-22.43a8.82,8.82,0,1,0,8.81,8.81A8.83,8.83,0,0,0,84,144.4Z"></path><path class="cls-2" d="M52.54,156.32a8,8,0,0,1-4.55-1.4A2.4,2.4,0,0,1,50.76,151a3.38,3.38,0,0,0,3.63-.05,2.41,2.41,0,1,1,2.9,3.84A7.94,7.94,0,0,1,52.54,156.32Z"></path><path class="cls-2" d="M52.61,166.83a13.62,13.62,0,1,1,13.62-13.62A13.64,13.64,0,0,1,52.61,166.83Zm0-22.43a8.82,8.82,0,1,0,8.81,8.81A8.82,8.82,0,0,0,52.61,144.4Z"></path><path class="cls-2" d="M84.2,156.32a8,8,0,0,1-4.56-1.4A2.4,2.4,0,0,1,82.41,151a3.38,3.38,0,0,0,3.63-.05,2.41,2.41,0,1,1,2.9,3.84A7.93,7.93,0,0,1,84.2,156.32Z"></path></svg> 