<svg xmlns="http://www.w3.org/2000/svg" viewBox="0 0 70.29 72.09">
  <defs>
    <style>
      .cls-1 {
        fill: #c964a7;
      }
    </style>
  </defs>
  <g id="Capa_2" data-name="Capa 2">
    <g id="Capa_1-2" data-name="Capa 1">
      <g>
        <rect class="cls-1" x="45.86" y="44.93" width="2.56" height="2.56"/>
        <rect class="cls-1" x="50.52" y="47.49" width="2.56" height="2.56"/>
        <rect class="cls-1" x="60.74" y="46.81" width="2.56" height="2.56"/>
        <rect class="cls-1" x="45.86" y="58.56" width="2.56" height="2.56"/>
        <rect class="cls-1" x="45.22" y="52.3" width="2.56" height="2.56"/>
        <rect class="cls-1" x="61.24" y="40.57" width="2.56" height="2.56"/>
        <rect class="cls-1" x="56.11" y="46.21" width="2.56" height="2.56"/>
        <rect class="cls-1" x="50.99" y="54.89" width="2.56" height="2.56"/>
        <rect class="cls-1" x="56.11" y="51.34" width="2.56" height="2.56"/>
        <path class="cls-1" d="M65.06,13.14a.51.51,0,0,0,0,.71.51.51,0,0,0,.72,0,.51.51,0,0,0,0-.71A.51.51,0,0,0,65.06,13.14Z"/>
        <path class="cls-1" d="M65.48,9.18a17.1,17.1,0,0,0-10.07,4.29A5.94,5.94,0,0,0,50,15.07a1.61,1.61,0,0,0,0,2.28L51.7,19.1a28,28,0,0,0-1.35,8.33,5.81,5.81,0,0,0-3.25-1,5.9,5.9,0,0,0-4.18,1.73.54.54,0,0,0,0,.76,5.88,5.88,0,0,0,6.23,1.37,6,6,0,0,0,1.37,6.24.56.56,0,0,0,.76,0A5.94,5.94,0,0,0,52,29.11a28.09,28.09,0,0,0,8.33-1.35l1.75,1.75a1.61,1.61,0,0,0,2.28,0A5.94,5.94,0,0,0,66,24.06a17.18,17.18,0,0,0,4.29-10.13,5.15,5.15,0,0,0-1-3.71A5.24,5.24,0,0,0,65.48,9.18ZM50.71,15.83a4.89,4.89,0,0,1,3.7-1.41A11.79,11.79,0,0,0,52.12,18l-1.41-1.41A.54.54,0,0,1,50.71,15.83Zm-6.6,12.73a4.85,4.85,0,0,1,6,0,4.82,4.82,0,0,1-6,0Zm6.79,6.8a4.83,4.83,0,0,1,0-6,4.83,4.83,0,0,1,0,6Zm12.74-6.61a.54.54,0,0,1-.76,0l-1.41-1.41A11.6,11.6,0,0,0,65,25.06,4.82,4.82,0,0,1,63.64,28.75Zm5.57-14.86a14.21,14.21,0,0,1-1.14,4.83,5.87,5.87,0,0,1-4.54-.81.54.54,0,0,0-.58.9,7,7,0,0,0,4.56,1.1A16.51,16.51,0,0,1,65,23.55h0c-.19.22-.4.43-.6.64-3,3-8.76,3.86-13,3.85,0-4.22.87-10,3.84-13l.64-.61A17.16,17.16,0,0,1,59.56,12,6.88,6.88,0,0,0,60,15.29a.54.54,0,1,0,1-.4,5.79,5.79,0,0,1-.28-3.5,14.22,14.22,0,0,1,4.78-1.13,4.33,4.33,0,0,1,3,.72A4.28,4.28,0,0,1,69.21,13.89Z"/>
        <path class="cls-1" d="M24.76,52.65a4.14,4.14,0,0,0,.06-.7,4.79,4.79,0,0,0-4.94-4.62,5.24,5.24,0,0,0-1.48.21,5.1,5.1,0,0,0-8.79,0,5.31,5.31,0,0,0-1.49-.21,5.21,5.21,0,0,0-2.6.69.41.41,0,0,0,.41.72,4.28,4.28,0,0,1,2.19-.59,4.48,4.48,0,0,1,1.55.28.41.41,0,0,0,.52-.22A4.13,4.13,0,0,1,14,45.86a4.12,4.12,0,0,1,3.81,2.35.41.41,0,0,0,.52.22,4.57,4.57,0,0,1,1.55-.28A4,4,0,0,1,24,52a3.41,3.41,0,0,1-.12.89.42.42,0,0,0,.3.5,3.88,3.88,0,0,1,3,3.65,4,4,0,0,1-4.12,3.8h-.27a5.92,5.92,0,0,1-1.44-.1h0a1.84,1.84,0,0,1-.41-.16h0l-.11-.07h0l-.1-.06,0,0-.09-.08,0,0-.09-.09h0l-.09-.11L20.28,60l0,0-.05,0,0,0-.07-.06,0,0-.05,0,0,0-.08,0h0l-.08,0h0A2.09,2.09,0,0,0,18,59.55a10,10,0,0,1-2.88.74l-.43,0H13A9.22,9.22,0,0,1,10,59.53a2.16,2.16,0,0,0-1.58-.05h0l-.17.07h0l-.14.07h0l-.06,0,0,0,0,0-.07,0,0,0-.07.06h0L7.71,60l0,0-.07.08h0l-.09.1,0,0-.07.07,0,0-.05,0-.08.06,0,0-.12.07h0l-.07,0H7l-.1.05-.05,0-.07,0-.08,0a5.09,5.09,0,0,1-1.51.13H4.94A4,4,0,0,1,.83,57a3.87,3.87,0,0,1,3-3.65.41.41,0,0,0,.3-.5A3.39,3.39,0,0,1,4,52a3.5,3.5,0,0,1,.63-2,.42.42,0,0,0-.11-.58.41.41,0,0,0-.57.11A4.37,4.37,0,0,0,3.18,52a4.14,4.14,0,0,0,.06.7A4.67,4.67,0,0,0,0,57a4.79,4.79,0,0,0,4.94,4.62h.55a6.22,6.22,0,0,0,1.22-.1c3.56,3.54,4,6.4,4,7.48v1.61c0,.33.2.8,1.15,1.14a6.77,6.77,0,0,0,2.24.34,6.77,6.77,0,0,0,2.24-.34c.95-.34,1.15-.81,1.15-1.14V69a8.33,8.33,0,0,1,1.4-4.29.41.41,0,0,0-.14-.57.4.4,0,0,0-.56.14A9.07,9.07,0,0,0,16.61,69v1.6s-.14.22-.66.4a6.31,6.31,0,0,1-1.9.27,6.26,6.26,0,0,1-1.9-.27c-.52-.18-.66-.36-.66-.39V69c0-3.24-2.49-6.29-3.94-7.8A1.73,1.73,0,0,0,7.83,61h0l.07-.07h0L8,60.87H8l.07-.07v0l.07-.06v0l.08-.09.07-.07,0,0,0,0,0,0,0,0,0,0a14.26,14.26,0,0,1,3.36,4.51.61.61,0,0,0,.68.36.64.64,0,0,0,.53-.58l.23-3.53h1.48L15,64.66a.64.64,0,0,0,.52.58.62.62,0,0,0,.69-.36,14.29,14.29,0,0,1,3.3-4.46h0l.08.06,0,0,.08.09.09.09v0l.08.08h0l.08.08h0l.09.08h0a1.92,1.92,0,0,0,.42.28c-.36.38-.79.85-1.22,1.4a.4.4,0,0,0,.06.58.41.41,0,0,0,.58-.07,20.75,20.75,0,0,1,1.44-1.61,8.46,8.46,0,0,0,1.42.08h.27A4.79,4.79,0,0,0,28,57,4.67,4.67,0,0,0,24.76,52.65ZM12.3,63.88a15.52,15.52,0,0,0-2.74-3.65l.15.06a10.46,10.46,0,0,0,2.78.78Zm3.5,0-.19-2.82a10.67,10.67,0,0,0,2.71-.75l.21-.07A15.17,15.17,0,0,0,15.8,63.88Z"/>
        <path class="cls-1" d="M36.9,3.54V31.6a1.31,1.31,0,0,1-1.3,1.29h-.11v-.25H3.84c0-.36.1-.7.14-1A1.44,1.44,0,0,1,4,31.23c.09-.57.2-1.13.34-1.7s.22-1,.36-1.52.32-1.11.5-1.66.36-1.09.59-1.63L7,25.17A31.57,31.57,0,0,0,5.3,31.23H35.49V4.83a31.69,31.69,0,0,0-6.29.89l-.29-1.25a33.33,33.33,0,0,1,6.58-.91,5.8,5.8,0,0,1,.59,0h0c.21,0,.43,0,.64,0Z"/>
        <path class="cls-1" d="M69.86,35.79l-1.23.32c0,.21,0,.39,0,.59a31.89,31.89,0,0,1-27.8,31.65V5.06A31.91,31.91,0,0,1,48.38,7l.43-1.16a32.19,32.19,0,0,0-8-2l-.62-.07c-.25,0-.5,0-.77-.07V69.73a5,5,0,0,0,.7-.07c.23,0,.46,0,.69-.06A33.17,33.17,0,0,0,69,44.4c.12-.5.23-1,.32-1.5s.16-1,.25-1.48l.21-1.77c.06-.95.11-1.9.11-2.88V36.7C69.88,36.41,69.88,36.09,69.86,35.79Z"/>
        <path class="cls-1" d="M36.9,36.73V69.87h-.73a5.16,5.16,0,0,1-.68,0,32.63,32.63,0,0,1-9.22-1.67L26.68,67a31,31,0,0,0,8.81,1.59V36.84H4.82a30.91,30.91,0,0,0,.41,5L4,42.06a33.32,33.32,0,0,1-.43-5.22V36.7c0-.43,0-.86,0-1.27H35.76v0A1.29,1.29,0,0,1,36.9,36.73Z"/>
        <path class="cls-1" d="M25.79,6.51A11.42,11.42,0,0,0,14.27,3.73a9.1,9.1,0,0,0-3.12-2.36A16.41,16.41,0,0,0,4.55,0a.53.53,0,0,0-.41.19A.5.5,0,0,0,4,.63a9.46,9.46,0,0,0,2.53,4.9,8.93,8.93,0,0,0,2.5,1.66A11.37,11.37,0,0,0,25.79,22.58a11.36,11.36,0,0,0,0-16.07ZM7.26,4.8A7.71,7.71,0,0,1,5.19,1a14.77,14.77,0,0,1,5.49,1.23A8.3,8.3,0,0,1,13.25,4.1a6.21,6.21,0,0,1,.52.63l.15.2A6.86,6.86,0,0,1,15,7.67a21,21,0,0,1-4.16-.86c-.37-.12-.73-.25-1.06-.39A8.66,8.66,0,0,1,7.26,4.8ZM17.74,24.89A10.34,10.34,0,0,1,10.06,7.61a21,21,0,0,0,4.54,1,3.92,3.92,0,0,0-.51,1.15.49.49,0,0,0,.35.62.3.3,0,0,0,.13,0,.49.49,0,0,0,.49-.37,2.65,2.65,0,0,1,.7-1.24A1.64,1.64,0,0,1,16.84,10a.51.51,0,0,0,.5.43h.08a.51.51,0,0,0,.42-.57,2.76,2.76,0,0,0-1.08-1.7A3,3,0,0,1,17.85,8a.51.51,0,1,0,.07-1,4.13,4.13,0,0,0-1.6.27,2.69,2.69,0,0,0-.32.13,7.78,7.78,0,0,0-1.09-2.82,10.57,10.57,0,0,1,2.83-.39,10.35,10.35,0,1,1,0,20.69Z"/>
        <path class="cls-1" d="M17.74,22.44a.5.5,0,0,1-.5-.51.5.5,0,0,1,.5-.5,6.84,6.84,0,0,0,4-1.26.52.52,0,0,1,.71.12.51.51,0,0,1-.12.71A7.89,7.89,0,0,1,17.74,22.44Z"/>
        <path class="cls-1" d="M9.21,15.13a.5.5,0,0,1-.5-.51.5.5,0,0,1,.5-.5h0a.5.5,0,0,1,.51.5A.51.51,0,0,1,9.21,15.13Z"/>
        <path class="cls-1" d="M11.41,15.85a.51.51,0,0,1-.51-.51.5.5,0,0,1,.51-.5h0a.5.5,0,0,1,.5.5A.5.5,0,0,1,11.41,15.85Z"/>
        <path class="cls-1" d="M10.06,17.53a.51.51,0,1,1,0-1h0a.51.51,0,0,1,0,1Z"/>
      </g>
    </g>
  </g>
</svg>
