<svg xmlns="http://www.w3.org/2000/svg" xmlns:xlink="http://www.w3.org/1999/xlink" viewBox="0 0 12.84 20.21">
  <defs>
    <style>
      .cls-1 {
        fill: #f4c725;
      }

      .cls-1, .cls-2, .cls-3 {
        fill-rule: evenodd;
      }

      .cls-2 {
        fill: #f6d251;
      }

      .cls-3 {
        fill: url(#Degradado_sin_nombre_4);
      }
    </style>
    <linearGradient id="Degradado_sin_nombre_4" data-name="Degradado sin nombre 4" x1="5.54" y1="6.58" x2="5.54" y2="20.21" gradientUnits="userSpaceOnUse">
      <stop offset="0" stop-color="#ce1c81"/>
      <stop offset="0.17" stop-color="#b22281"/>
      <stop offset="0.54" stop-color="#6a3180"/>
      <stop offset="1" stop-color="#084580"/>
    </linearGradient>
  </defs>
  <g id="Capa_2" data-name="Capa 2">
    <g id="Modo_de_aislamiento" data-name="Modo de aislamiento">
      <g>
        <path id="star-eight" class="cls-1" d="M10.49,10.89c-.52-.53-.44-.51-1.12-.21.52-.52.52-.45.21-1.12.52.53.45.51,1.13.22C10.18,10.29,10.19,10.22,10.49,10.89Z"/>
        <path id="star-seven" class="cls-1" d="M10.74,5c.56,1.28.58,1.14-.42,2.11,1.28-.56,1.14-.58,2.11.41-.56-1.27-.59-1.13.41-2.1C11.57,6,11.7,6,10.74,5Z"/>
        <path id="star-six" class="cls-1" d="M8.63,0c.48.57.41.55,1.12.29-.57.5-.55.42-.31,1.13C9,.84,9,.86,8.33,1.12,8.9.63,8.89.71,8.63,0Z"/>
        <path id="star-five" class="cls-1" d="M6.88,2.48c.33.35.28.34.72.14-.35.34-.34.29-.15.73C7.12,3,7.17,3,6.73,3.21,7.07,2.88,7.07,2.92,6.88,2.48Z"/>
        <path id="star-foor" class="cls-1" d="M3.85.6c.63.65.54.63,1.37.26-.65.63-.64.55-.27,1.38C4.32,1.59,4.4,1.61,3.57,2,4.23,1.33,4.21,1.43,3.85.6Z"/>
        <path id="star-three" class="cls-1" d="M.49,2c.48.48.41.47,1,.19-.49.48-.47.41-.2,1C.84,2.69.92,2.71.29,3,.78,2.5.77,2.58.49,2Z"/>
        <path id="star-two" class="cls-1" d="M.42,5.32C1,6.59,1,6.45,0,7.43c1.28-.56,1.14-.59,2.11.4-.56-1.26-.59-1.12.41-2.1C1.25,6.29,1.38,6.32.42,5.32Z"/>
        <path id="star-one" class="cls-1" d="M4.89,2.92C7,5.05,6.67,5,9.4,3.8,7.26,5.89,7.32,5.58,8.52,8.32,6.44,6.18,6.73,6.24,4,7.44,6.14,5.36,6.08,5.66,4.89,2.92Z"/>
        <path id="star-big-one" class="cls-2" d="M4.89,2.92C7,5.05,6.67,5,9.4,3.8,7.26,5.89,7.32,5.58,8.52,8.32,6.44,6.18,6.73,6.24,4,7.44,6.14,5.36,6.08,5.66,4.89,2.92Z"/>
        <path id="stick" class="cls-3" d="M5.34,19.61c0,.88-1.5.72-1.41,0L5.44,7.35c.14-1,1.82-1,1.72,0-.65,4.5-1.16,7.8-1.82,12.3Z"/>
      </g>
    </g>
  </g>
</svg>
