<svg width="16" height="17" viewBox="0 0 16 17" fill="none" xmlns="http://www.w3.org/2000/svg">
<g clip-path="url(#clip0)">
<path fill-rule="evenodd" clip-rule="evenodd" d="M8 16.5C12.4183 16.5 16 12.9183 16 8.5C16 4.08172 12.4183 0.5 8 0.5C3.58172 0.5 0 4.08172 0 8.5C0 12.9183 3.58172 16.5 8 16.5ZM8.00002 15.379C11.7992 15.379 14.879 12.2992 14.879 8.49999C14.879 4.70082 11.7992 1.62099 8.00002 1.62099C4.20086 1.62099 1.12102 4.70082 1.12102 8.49999C1.12102 12.2992 4.20086 15.379 8.00002 15.379Z" fill="#ffaa0b"/>
<rect x="4.5" y="9.84009" width="1" height="3.5" rx="0.5" transform="rotate(-57.7092 4.5 9.84009)" fill="#ffaa0b"/>
<rect width="1" height="7.5" rx="0.5" transform="matrix(0.845348 0.534217 0.534217 -0.845348 6.61328 11.1755)" fill="#ffaa0b"/>
</g>
<defs>
<clipPath id="clip0">
<rect y="0.5" width="16" height="16" fill="white"/>
</clipPath>
</defs>
</svg>
