<?xml version="1.0" encoding="utf-8"?>
<!-- Generator: Adobe Illustrator 25.4.1, SVG Export Plug-In . SVG Version: 6.00 Build 0)  -->
<svg version="1.1" xmlns="http://www.w3.org/2000/svg" xmlns:xlink="http://www.w3.org/1999/xlink" x="0px" y="0px"
	 viewBox="0 0 464 464" style="enable-background:new 0 0 464 464;" xml:space="preserve">
<style type="text/css">
	.st0{fill:#FFFFFF;}
	.st1{fill-rule:evenodd;clip-rule:evenodd;fill:#FFFFFF;}
</style>
<g id="Capa_1">
	<path d="M-187.1,612.1h464v16h-464V612.1z"/>
	<g>
		<path class="st0" d="M125,219v237.9c0,4,3.2,7.2,7.2,7.2H333c4,0,7.2-3.2,7.2-7.2v-116c11.2-4,17.1-16.3,13.1-27.5
			c-3-8.6-11.2-14.3-20.3-14.3H203.9c-11.9,0-21.5,9.6-21.5,21.5c0,9.1,5.7,17.2,14.3,20.3v108.8h-57.4V220.2h86.1v64.5h14.3V219
			c11.2-4,17.1-16.3,13.1-27.5c-3-8.6-11.2-14.3-20.3-14.3H132.2c-11.9,0-21.5,9.6-21.5,21.5C110.7,207.8,116.4,215.9,125,219
			L125,219z M203.9,313.4H333c4,0,7.2,3.2,7.2,7.2c0,4-3.2,7.2-7.2,7.2H203.9c-4,0-7.2-3.2-7.2-7.2
			C196.7,316.6,200,313.4,203.9,313.4z M211.1,342.1h114.7v107.6H211.1V342.1z M132.2,191.5h100.4c4,0,7.2,3.2,7.2,7.2
			c0,4-3.2,7.2-7.2,7.2H132.2c-4,0-7.2-3.2-7.2-7.2C125,194.7,128.2,191.5,132.2,191.5z"/>
		<path class="st0" d="M160.9,241.7h14.3V256h-14.3V241.7z"/>
		<path class="st0" d="M189.6,241.7h14.3V256h-14.3V241.7z"/>
		<path class="st0" d="M160.9,270.4h14.3v14.3h-14.3V270.4z"/>
		<path class="st0" d="M189.6,270.4h14.3v14.3h-14.3V270.4z"/>
		<path class="st0" d="M160.9,299.1h14.3v14.3h-14.3V299.1z"/>
		<path class="st0" d="M261.3,356.4h14.3v14.3h-14.3V356.4z"/>
		<path class="st0" d="M290,356.4h14.3v14.3H290V356.4z"/>
		<path class="st0" d="M261.3,385.1h14.3v14.3h-14.3V385.1z"/>
		<path class="st0" d="M290,385.1h14.3v14.3H290V385.1z"/>
		<path class="st0" d="M261.3,413.8h14.3v14.3h-14.3V413.8z"/>
		<path class="st0" d="M232.6,356.4h14.3v14.3h-14.3L232.6,356.4z"/>
		<path class="st0" d="M232.6,385.1h14.3v14.3h-14.3L232.6,385.1z"/>
		<path class="st0" d="M232.6,413.8h14.3v14.3h-14.3L232.6,413.8z"/>
		<path class="st0" d="M290,413.8h14.3v14.3H290V413.8z"/>
		<path class="st0" d="M160.9,327.8h14.3v14.3h-14.3V327.8z"/>
		<path class="st0" d="M160.9,356.4h14.3v14.3h-14.3V356.4z"/>
		<path class="st0" d="M160.9,385.1h14.3v14.3h-14.3V385.1z"/>
		<path class="st0" d="M160.9,413.8h14.3v14.3h-14.3V413.8z"/>
	</g>
	<g>
		<path class="st0" d="M448.3,406.2c0.2-1.4,0.3-2.7,0.3-4.1c0-17.1-13.8-30.9-30.8-30.9c-11.2,0-21.5,6-27,15.7
			c-0.7-0.1-1.5-0.2-2.4-0.4c-13.1-2.8-26.5,3.5-32.5,15.5l-0.1,0.2c-17.1,0-30.9,13.8-30.9,30.9c0,5.4,1.5,10.8,4.3,15.5H134.9
			c2.8-4.7,4.3-10,4.3-15.5c0-8.5-3.5-16.3-9.1-21.9c-5.6-5.6-13.3-9.1-21.9-9.1c-3.9-12.7-17.2-19.9-30-16.3c-2,0.6-3.7,1-5.1,1.2
			c-8.4-14.9-27.2-20.1-42-11.8c-9.7,5.5-15.8,15.8-15.7,27c0,1.4,0.1,2.7,0.3,4.1c-14.9,8.4-20.1,27.2-11.8,42
			c5.5,9.7,15.8,15.8,27,15.7h402.1c17.1,0,30.9-13.8,30.9-30.8C464,422,458,411.7,448.3,406.2z M114.2,447.4
			c-1.9,0.8-3.9,1.2-5.9,1.1H30.9c-8.5,0-15.4-6.8-15.5-15.4c0-7,4.7-13.1,11.4-15c4.1-1.1,6.6-5.4,5.5-9.5
			c-0.1-0.3-0.2-0.6-0.3-0.9c-3.2-7.9,0.6-16.9,8.5-20.1c7.9-3.2,16.9,0.6,20.1,8.5c0.2,0.6,0.4,1.2,0.6,1.8
			c1.1,4.1,5.4,6.6,9.5,5.4c0.3-0.1,0.6-0.2,0.9-0.3c8-3.1,17,0.9,20.1,8.9c0.2,0.5,0.3,1,0.5,1.5c1.1,4.1,5.4,6.6,9.5,5.4
			c0.3-0.1,0.6-0.2,0.9-0.3c7.9-3.2,16.9,0.6,20.1,8.5C125.9,435.2,122.1,444.2,114.2,447.4z M448,437.1c-1.8,6.8-7.9,11.5-15,11.5
			h-77.3c-8.5,0-15.5-6.8-15.5-15.4c0-8.5,6.8-15.5,15.4-15.5c2,0,4,0.4,5.9,1.1c4,1.6,8.5-0.3,10.1-4.3c0.1-0.3,0.2-0.6,0.3-0.9
			c2.3-8.3,10.9-13.1,19.1-10.8c0.5,0.1,1,0.3,1.5,0.5c4,1.6,8.5-0.3,10.1-4.3c0.1-0.3,0.2-0.6,0.3-0.9c2.2-8.2,10.7-13.1,18.9-10.9
			c8.2,2.2,13.1,10.7,10.9,18.9c-0.2,0.6-0.4,1.2-0.6,1.8c-1.6,4,0.3,8.5,4.3,10.1c0.3,0.1,0.6,0.2,0.9,0.3
			C445.3,420.4,450.2,428.9,448,437.1z"/>
	</g>
</g>
<g id="Modo_de_aislamiento">
	<g id="star-big-one_00000114039179735590202910000001031550015250488961_">
		<path class="st0" d="M369.1,12c9.7,9.9,13.1,14.1,18.3,14.1c4,0,9.1-2.5,18.9-6.8c-17.6,17.2-17.2,14.7-7.3,37.2
			c-9.7-9.9-13.1-14.1-18.3-14.1c-4,0-9.1,2.5-19,6.8C379.4,32.2,379,34.6,369.1,12 M363,2.8l4.4,10c0.6,1.3,1.1,2.6,1.6,3.7
			c3.7,8.4,5.5,12.5,4.9,15.8c-0.6,3.2-3.9,6.4-10.4,12.7c-0.9,0.9-1.9,1.9-3,2.9l-7.9,7.6l10.1-4.4c1.4-0.6,2.6-1.2,3.8-1.7
			c7.1-3.1,11.3-5,14.4-5c3.8,0,6.9,3.1,14.2,10.7c0.8,0.9,1.7,1.8,2.7,2.8l7.7,7.9l-4.4-10.1c-0.6-1.3-1.1-2.6-1.7-3.7
			c-3.7-8.3-5.5-12.5-4.9-15.7c0.6-3.2,3.9-6.4,10.4-12.7c0.9-0.9,1.9-1.9,3-2.9l7.9-7.6l-10.1,4.4c-1.3,0.6-2.6,1.1-3.7,1.6
			c-7.1,3.1-11.3,5-14.4,5c-3.8,0-6.8-3.1-14-10.5c-0.9-0.9-1.9-1.9-2.9-3L363,2.8L363,2.8z"/>
	</g>
	<path id="stick_00000086668049874975313840000013689079184296825987_" class="st1" d="M372.8,149.8c-0.4,7.3-12.3,5.9-11.6-0.1
		l12.5-101.1c1.2-8.3,15-8.6,14.2-0.3C382.5,85.4,378.3,112.6,372.8,149.8L372.8,149.8z"/>
	<path class="st1" d="M443.6,146.1h9.6c5.5-0.1,3.9-3.2,2.6-6.8l-27.4-85.2c-0.2-0.7-1-1-1.7-0.8c-0.4,0.1-0.7,0.4-0.8,0.8
		l-44.2,91.7h7.7c4.4-0.2,4.9-2.8,6.3-5.8l27.7-59.4c3.5,11.3,6.9,22.5,10.3,33.8h-19.7c-2.8,0-3.9,1.4-4.6,3.6l-1.6,4.5h28.4
		L443.6,146.1L443.6,146.1z"/>
	<path class="st1" d="M347.5,146c2.7,0,3.2-2.2,3.2-5.4c0.8-27.7,1.5-59.3,2.4-87c-0.2-1.1-2.1-1.4-2.7-0.4l-42.2,67.6l-29.4-68.9
		c-0.3-0.5-0.8-0.8-1.3-0.8c-0.7,0-1.3,0.4-1.5,1.1l-22,92.9h6.4c3.8,0,4.3-2.3,5.9-8.8l12-47.6l21.7,51.1l1.1,2.4
		c2.5,4.7,3.9,3.2,6-0.1l31.3-47.8l-1.6,51.8H347.5z"/>
	<path class="st1" d="M297.3,154.6c-24.4,9.3-40.8,8.6-52.4,1.7c-20-11.8-22.7-35-31.4-53.9c-1.5-3.3-3.7-6-7.7-7
		c8.4,0.2,15,0.5,21-5.6c5.9-6.1,7.8-14.6,2.3-21.4c-5.5-6.9-12.3-5.5-20.7-5.5c-3.2,26.4-6.3,50.7-9.5,77.1c-0.5,4.2-1.2,5.9-5.1,6
		h-10.6l11-85.8c0.7-6.1,2.2-6.3,6.1-6.4h25.4c7.5,0,14.2,4.4,17.8,10.5c4.5,7.6,3.2,19.1-1.7,26.4c-2.9,4.3-9.4,9.8-17.6,10.2
		c7,8.8,11.5,27.8,19,38.3C252.2,151.5,266.1,158.8,297.3,154.6L297.3,154.6z"/>
	<path class="st1" d="M179,135.9h-37.7c-1.7,0.2-2.9-1.4-2.6-3.5l3.4-26.3c0.2-1.5,1.6-2.2,3-2.2h16.6c4.2,0,4.3-4.4,4.9-8.2h-23.2
		l4.2-32h35.3c2.9,0,3.2-1.3,3.5-3.2l0.8-6.6l-48.3,0.2c-2.6-0.2-5.5,1.2-5.8,4.9l-11,87.2h51.6c2.7,0.2,4.3-1.3,4.5-3.5L179,135.9
		L179,135.9z"/>
	<path class="st1" d="M114.6,80.4c-0.8-5.4-2.7-10.6-5.4-15.3c-2.7-4.6-6.2-8.6-10.5-11.9c-4.7-3.5-10-6-15.6-7.6
		c-3.8-1.1-7.6-1.9-11.6-2.3c-11.9-1.5-24-0.8-36-1.2C26,42.5,21.7,41.3,20,51.5L7,154.7c20.3-0.5,32.5,0.7,51.2-0.7
		c9-0.8,22-6.2,29.3-10.9c5.1-3.3,9.6-7.3,13.5-12c3.8-4.6,7-9.8,9.2-15.3c2.3-5.6,3.9-11.6,4.6-17.6
		C115.6,92.2,115.5,86.2,114.6,80.4z M66.7,137.8c-12.3,5.9-17,4.9-30.2,4.9h-5c-2.2,0.1-4.3-1.1-3.6-5.9L38,54.3L52,54
		c11-0.2,23.5,1.3,32.7,7.2c3.9,2.5,6.7,6.2,9,11.9C103.7,97.5,90.2,126.6,66.7,137.8z"/>
</g>
</svg>
